<svg width="366" height="166" viewBox="0 0 366 166" fill="none" xmlns="http://www.w3.org/2000/svg">
<path d="M179 157.18C218.709 157.18 250.9 124.989 250.9 85.28C250.9 45.5707 218.709 13.38 179 13.38C139.291 13.38 107.1 45.5707 107.1 85.28C107.1 124.989 139.291 157.18 179 157.18Z" fill="#FDEB19" stroke="black" stroke-miterlimit="10"/>
<path d="M220.28 69.62C224 69.62 227.48 70.26 230.7 71.55C233.92 72.84 236.74 74.65 239.15 76.99C241.56 79.33 243.45 82.04 244.81 85.12C246.17 88.2 246.85 91.53 246.85 95.11C246.85 98.69 246.17 102.05 244.81 105.17C243.45 108.3 241.56 111.03 239.15 113.37C236.74 115.71 233.92 117.54 230.7 118.85C227.48 120.16 224 120.82 220.28 120.82C216.56 120.82 213.08 120.16 209.86 118.85C206.64 117.54 203.82 115.71 201.41 113.37C199 111.03 197.11 108.3 195.75 105.17C194.39 102.04 193.71 98.69 193.71 95.11C193.71 91.53 194.39 88.19 195.75 85.08C197.11 81.98 199 79.27 201.41 76.95C203.82 74.63 206.64 72.83 209.86 71.54C213.08 70.27 216.56 69.62 220.28 69.62ZM220.35 76.79C217.87 76.79 215.54 77.26 213.37 78.19C211.2 79.12 209.27 80.42 207.6 82.09C205.93 83.76 204.63 85.71 203.7 87.93C202.77 90.15 202.3 92.55 202.3 95.13C202.3 97.71 202.78 100.12 203.73 102.36C204.68 104.61 206 106.57 207.67 108.27C209.34 109.97 211.26 111.29 213.44 112.25C215.61 113.21 217.92 113.68 220.35 113.68C222.78 113.68 225.09 113.2 227.26 112.25C229.43 111.3 231.33 109.97 232.95 108.27C234.57 106.58 235.85 104.61 236.78 102.36C237.71 100.12 238.18 97.7 238.18 95.13C238.18 92.55 237.72 90.15 236.78 87.93C235.85 85.71 234.57 83.76 232.95 82.09C231.33 80.42 229.43 79.12 227.26 78.19C225.09 77.25 222.79 76.79 220.35 76.79Z" fill="black"/>
<path d="M255.88 70.12H264.19L293.2 109.87L291.05 110.59V70.12H299.36V120.26H291.05L262.11 80.58L264.33 79.86V120.26H255.88V70.12Z" fill="black"/>
<path d="M312.61 70.12H348.42V77.35H321.06V91.46H345.56V98.62H321.06V113.02H349.28V120.25H312.61V70.12Z" fill="black"/>
<path d="M136.52 94.72C133.1 94.72 129.89 94.11 126.89 92.89C123.89 91.67 121.27 89.96 119.01 87.75C116.76 85.54 114.99 83 113.7 80.11C112.42 77.23 111.77 74.12 111.77 70.78C111.77 67.44 112.41 64.31 113.7 61.38C114.98 58.45 116.75 55.88 119.01 53.67C121.26 51.46 123.89 49.74 126.89 48.5C129.89 47.26 133.1 46.64 136.52 46.64C139.99 46.64 143.22 47.26 146.22 48.5C149.22 49.74 151.84 51.46 154.1 53.67C156.35 55.88 158.12 58.45 159.41 61.38C160.69 64.31 161.34 67.44 161.34 70.78C161.34 74.11 160.7 77.24 159.41 80.14C158.12 83.04 156.36 85.59 154.1 87.78C151.85 89.97 149.22 91.67 146.22 92.88C143.22 94.11 139.99 94.72 136.52 94.72ZM136.52 90.12C139.18 90.12 141.67 89.62 143.99 88.63C146.31 87.64 148.36 86.25 150.14 84.47C151.92 82.69 153.32 80.63 154.33 78.28C155.34 75.94 155.85 73.44 155.85 70.78C155.85 68.08 155.34 65.55 154.33 63.21C153.32 60.87 151.91 58.79 150.1 56.99C148.3 55.19 146.24 53.79 143.92 52.8C141.6 51.81 139.13 51.31 136.52 51.31C133.86 51.31 131.37 51.81 129.05 52.8C126.73 53.79 124.69 55.19 122.93 56.99C121.17 58.79 119.8 60.87 118.81 63.21C117.82 65.55 117.32 68.08 117.32 70.78C117.32 73.44 117.82 75.94 118.81 78.28C119.8 80.62 121.18 82.68 122.93 84.47C124.69 86.25 126.73 87.64 129.05 88.63C131.37 89.63 133.86 90.12 136.52 90.12Z" fill="black"/>
<path d="M101.91 94.3801H96.3L66.49 53.4201L67.91 52.9501V94.3901H62.57V47.0701H68.11L97.92 87.9701L96.5 88.4401V47.0701H101.91V94.3801Z" fill="black"/>
<path d="M48.18 94.3801H16.07V89.6501H42.77V73.4301H18.91V68.7701H42.77V51.7401H15.19V47.0801H48.18V94.3801Z" fill="black"/>
<path d="M148.57 124.2H138.06L200.06 44.65C201.29 42.94 203.75 41.84 206.48 41.84H216.99L154.99 121.49C153.62 123.1 151.16 124.2 148.57 124.2Z" fill="black"/>
<path d="M188.21 98.81C187.53 99.11 186.99 99.62 186.57 100.12L170.33 120.78C169.03 122.41 169.36 124.29 170.71 125.63H155.26C156.47 124.95 157.5 124.09 158.28 123.1L223.42 39.23H219.46V39.22H145.59C143.81 39.22 142.17 39.72 141.08 40.52C155.56 44.13 166.21 53.56 167.71 65.1L182.18 46.64C183.7 44.7 183.21 42.48 181.5 40.99H198.77C197.56 41.67 196.51 42.52 195.69 43.54L130.69 127.41H148.31C148.4 127.41 148.48 127.41 148.57 127.4H208.03C210.08 127.4 211.72 126.69 212.81 125.69C198.32 121.39 188.21 110.95 188.21 98.81ZM135.74 125.2L136.28 124.4L198.83 44.15C200.27 42.39 202.64 41.26 205.31 40.99C205.69 40.96 206.08 40.94 206.47 40.94H219.31L219.27 40.99L218.76 41.63L156.22 121.99C154.58 123.9 151.71 125.2 148.57 125.2H135.74Z" fill="black"/>
<path d="M219.31 40.9399L219.27 40.9899H205.31C205.69 40.9599 206.08 40.9399 206.47 40.9399H219.31Z" fill="black"/>
</svg>
